<?xml version="1.0" encoding="UTF-8" standalone="no"?>
<!DOCTYPE svg PUBLIC "-//W3C//DTD SVG 1.1//EN"
 "http://www.w3.org/Graphics/SVG/1.1/DTD/svg11.dtd">
<!-- Generated by graphviz version 2.47.0 (0)
 -->
<!-- Pages: 1 -->
<svg width="273pt" height="305pt"
 viewBox="0.00 0.00 272.50 305.00" xmlns="http://www.w3.org/2000/svg" xmlns:xlink="http://www.w3.org/1999/xlink">
<g id="graph0" class="graph" transform="scale(1 1) rotate(0) translate(4 301)">
<polygon fill="white" stroke="transparent" points="-4,4 -4,-301 268.5,-301 268.5,4 -4,4"/>
<!-- ~(p ∨ ~q) -->
<g id="node1" class="node">
<title>~(p ∨ ~q)</title>
<ellipse fill="aqua" stroke="black" cx="148.5" cy="-279" rx="52" ry="18"/>
<text text-anchor="middle" x="148.5" y="-275.3" font-family="Times New Roman,serif" font-size="14.00">~(p ∨ ~q)</text>
</g>
<!-- (~p ∧ ~~q) -->
<g id="node2" class="node">
<title>(~p ∧ ~~q)</title>
<ellipse fill="aqua" stroke="black" cx="85.5" cy="-192" rx="57.39" ry="18"/>
<text text-anchor="middle" x="85.5" y="-188.3" font-family="Times New Roman,serif" font-size="14.00">(~p ∧ ~~q)</text>
</g>
<!-- ~(p ∨ ~q)&#45;&#45;(~p ∧ ~~q) -->
<g id="edge1" class="edge">
<title>~(p ∨ ~q)&#45;&#45;(~p ∧ ~~q)</title>
<path fill="none" stroke="black" d="M136.06,-261.27C131.76,-255.48 126.92,-248.96 122.5,-243 114.27,-231.9 105.02,-219.4 97.83,-209.67"/>
<text text-anchor="middle" x="150" y="-231.8" font-family="Times New Roman,serif" font-size="14.00">De Morg.</text>
</g>
<!-- ~(~q ∨ p) -->
<g id="node3" class="node">
<title>~(~q ∨ p)</title>
<ellipse fill="aqua" stroke="black" cx="212.5" cy="-192" rx="52" ry="18"/>
<text text-anchor="middle" x="212.5" y="-188.3" font-family="Times New Roman,serif" font-size="14.00">~(~q ∨ p)</text>
</g>
<!-- ~(p ∨ ~q)&#45;&#45;~(~q ∨ p) -->
<g id="edge2" class="edge">
<title>~(p ∨ ~q)&#45;&#45;~(~q ∨ p)</title>
<path fill="none" stroke="black" d="M162.65,-261.49C167.46,-255.72 172.81,-249.15 177.5,-243 185.72,-232.21 194.47,-219.71 201.17,-209.91"/>
<text text-anchor="middle" x="215" y="-231.8" font-family="Times New Roman,serif" font-size="14.00">Commut.</text>
</g>
<!-- (~~q ∧ ~p) -->
<g id="node4" class="node">
<title>(~~q ∧ ~p)</title>
<ellipse fill="aqua" stroke="black" cx="170.5" cy="-105" rx="57.39" ry="18"/>
<text text-anchor="middle" x="170.5" y="-101.3" font-family="Times New Roman,serif" font-size="14.00">(~~q ∧ ~p)</text>
</g>
<!-- (~p ∧ ~~q)&#45;&#45;(~~q ∧ ~p) -->
<g id="edge3" class="edge">
<title>(~p ∧ ~~q)&#45;&#45;(~~q ∧ ~p)</title>
<path fill="none" stroke="black" d="M100.87,-174.6C110.19,-164.74 122.4,-152.02 133.5,-141 139.78,-134.77 146.79,-128.07 153.02,-122.21"/>
<text text-anchor="middle" x="160" y="-144.8" font-family="Times New Roman,serif" font-size="14.00">Commut.</text>
</g>
<!-- (~p ∧ q) -->
<g id="node5" class="node">
<title>(~p ∧ q)</title>
<ellipse fill="aqua" stroke="black" cx="47.5" cy="-105" rx="47.5" ry="18"/>
<text text-anchor="middle" x="47.5" y="-101.3" font-family="Times New Roman,serif" font-size="14.00">(~p ∧ q)</text>
</g>
<!-- (~p ∧ ~~q)&#45;&#45;(~p ∧ q) -->
<g id="edge4" class="edge">
<title>(~p ∧ ~~q)&#45;&#45;(~p ∧ q)</title>
<path fill="none" stroke="black" d="M63.07,-175.12C57.25,-169.76 51.72,-163.28 48.5,-156 44,-145.84 43.75,-133.34 44.63,-123.38"/>
<text text-anchor="middle" x="81.5" y="-144.8" font-family="Times New Roman,serif" font-size="14.00">Doub. Neg.</text>
</g>
<!-- ~(~q ∨ p)&#45;&#45;(~~q ∧ ~p) -->
<g id="edge5" class="edge">
<title>~(~q ∨ p)&#45;&#45;(~~q ∧ ~p)</title>
<path fill="none" stroke="black" d="M205.6,-174.13C201.46,-164.34 195.96,-151.84 190.5,-141 187.48,-135 183.91,-128.58 180.63,-122.89"/>
<text text-anchor="middle" x="226" y="-144.8" font-family="Times New Roman,serif" font-size="14.00">De Morg.</text>
</g>
<!-- (q ∧ ~p) -->
<g id="node6" class="node">
<title>(q ∧ ~p)</title>
<ellipse fill="aqua" stroke="black" cx="108.5" cy="-18" rx="47.5" ry="18"/>
<text text-anchor="middle" x="108.5" y="-14.3" font-family="Times New Roman,serif" font-size="14.00">(q ∧ ~p)</text>
</g>
<!-- (~~q ∧ ~p)&#45;&#45;(q ∧ ~p) -->
<g id="edge6" class="edge">
<title>(~~q ∧ ~p)&#45;&#45;(q ∧ ~p)</title>
<path fill="none" stroke="black" d="M159.49,-87.11C152.98,-77.31 144.48,-64.81 136.5,-54 131.97,-47.86 126.81,-41.3 122.16,-35.53"/>
<text text-anchor="middle" x="180.5" y="-57.8" font-family="Times New Roman,serif" font-size="14.00">Doub. Neg.</text>
</g>
<!-- (~p ∧ q)&#45;&#45;(q ∧ ~p) -->
<g id="edge7" class="edge">
<title>(~p ∧ q)&#45;&#45;(q ∧ ~p)</title>
<path fill="none" stroke="black" d="M59.55,-87.21C70.32,-72.21 85.99,-50.37 96.68,-35.47"/>
<text text-anchor="middle" x="109" y="-57.8" font-family="Times New Roman,serif" font-size="14.00">Commut.</text>
</g>
</g>
</svg>
